# xmcd
#
# Track frame offsets:
#	150
#	15634
#	33314
#	53110
#	71274
#	97294
#	121204
#	139272
#	154968
#	171044
#	192445
#	211679
#	228546
#	247458
#	267023
#	285984
#	309634
#	329781
#
# Disc length: 4619 seconds
#
# Revision: 0
# Processed by: cddbd v1.5.2PL0 Copyright (c) Steve Scherf et al.
# Submitted via: audiograbber 1.83.01
#
DISCID=0d120912
DTITLE=Lara Fabian - Chansons
DYEAR=1900
DGENRE=
TTITLE0=J'y crois encore
TTITLE1=Chanson de la petite fleur triste
TTITLE2=Bambina
TTITLE3=Imagine
TTITLE4=Je suis mon coeur
TTITLE5=Immortelle
TTITLE6=Tango
TTITLE7=Que Dieu aide les exclus
TTITLE8=Rio
TTITLE9=S'en aller
TTITLE10=Tout
TTITLE11=Tu t'en va
TTITLE12=Dire
TTITLE13=Je t'aime
TTITLE14=La difference
TTITLE15=Le roi est une femme
TTITLE16=Parce que tu pars
TTITLE17=Tu es mon autre
EXTD=
EXTT0=
EXTT1=
EXTT2=
EXTT3=
EXTT4=
EXTT5=
EXTT6=
EXTT7=
EXTT8=
EXTT9=
EXTT10=
EXTT11=
EXTT12=
EXTT13=
EXTT14=
EXTT15=
EXTT16=
EXTT17=
PLAYORDER=
